PathFileType	4	(X/Y/Z)	Walk2.trc
DataRate	CameraRate	NumFrames	NumMarkers	Units	OrigDataRate	OrigDataStartFrame	OrigNumFrames
200.000000	200.000000	4	61	mm	200.000000	250	450
Frame#	Times		LFHD		RFHD		CLAV		STRN		LASI		RASI		RACR1		RUA1		RWRU		RCAR		LACR1		LUA1		LFA1		LWRU		LCAR		RTH3		RTH2		RTB1		LTH1		LTH3		LTH2		LTH4		LLFC		LTB1		LTB3		LTB2		LTB4		LToe		RTB4		RWRR		LBHD		RLFC		RMFC		RTB3		RMT5		RToe		RFA1		LWRR		LElbow		RTH4		RMT1		RTB2		RMMAL		LMFC		LPSI		RTH1		RElbow		LElbowM		LMT5		RBHD		RBack		RPSI		RLMAL		RCAL		C7		T10		LMMAL		LMT1		RElbowM		LCAL		LLMAL
			X1	Y1	Z1	X2	Y2	Z2	X3	Y3	Z3	X4	Y4	Z4	X5	Y5	Z5	X6	Y6	Z6	X7	Y7	Z7	X8	Y8	Z8	X9	Y9	Z9	X10	Y10	Z10	X11	Y11	Z11	X12	Y12	Z12	X13	Y13	Z13	X14	Y14	Z14	X15	Y15	Z15	X16	Y16	Z16	X17	Y17	Z17	X18	Y18	Z18	X19	Y19	Z19	X20	Y20	Z20	X21	Y21	Z21	X22	Y22	Z22	X23	Y23	Z23	X24	Y24	Z24	X25	Y25	Z25	X26	Y26	Z26	X27	Y27	Z27	X28	Y28	Z28	X29	Y29	Z29	X30	Y30	Z30	X31	Y31	Z31	X32	Y32	Z32	X33	Y33	Z33	X34	Y34	Z34	X35	Y35	Z35	X36	Y36	Z36	X37	Y37	Z37	X38	Y38	Z38	X39	Y39	Z39	X40	Y40	Z40	X41	Y41	Z41	X42	Y42	Z42	X43	Y43	Z43	X44	Y44	Z44	X45	Y45	Z45	X46	Y46	Z46	X47	Y47	Z47	X48	Y48	Z48	X49	Y49	Z49	X50	Y50	Z50	X51	Y51	Z51	X52	Y52	Z52	X53	Y53	Z53	X54	Y54	Z54	X55	Y55	Z55	X56	Y56	Z56	X57	Y57	Z57	X58	Y58	Z58	X59	Y59	Z59	X60	Y60	Z60	X61	Y61	Z61

250	1.25	117.99	1572.4	-76.728	116.46	1574.8	22.815	48.42	1314.3	-23.18	68.042	1180.9	-17.086	16.326	908.45	-135.29	28.083	918.16	113.72	-35.928	1353.9	138.83	-57.875	1187.3	196.94	-28.765	778.36	253.21	-57.126	716.29	302.32	-19.964	1372.4	-174.26	-17.65	1206.7	-251.14	91.916	956.04	-306.13	199.9	903.52	-270.55	230.39	839.8	-304.8	88.947	604.41	154.58	98.987	709.16	161.85	169.86	364.97	100.79	-63.785	744.1	-194.14	-106.62	582.06	-156.22	-31.525	654.33	-155	-86.501	662.41	-176.7	-148.21	445.05	-130.39	-131.31	343.84	-59.563	-180.45	182.03	-38.153	-172.96	259.44	-109.11	-159.1	262.9	-49.463	-65.315	24.259	-28.482	156.53	279.75	94.856	-90.971	782.12	283.14	-34.082	1535.3	-100.91	150.39	474.23	129.64	138.29	468.74	5.5551	142.67	196	85.907	179.73	47.019	114.66	261.51	69.238	77.347	-68.337	901.41	271.64	151.72	857.11	-289.3	-15.058	1054.5	-296.46	50.761	677.53	175.08	218.35	62.322	39.516	110.79	284.61	135.27	99.15	109.64	20.178	-174.49	448.01	1.2271	-152.94	968.6	-52.173	11.314	752.16	196.66	-87.58	1026.1	232.66	-37.285	1024.2	-231.89	-155.6	23.816	-81.532	-32.481	1544.3	42.824	-144.44	1294.2	40.708	-146.28	960.39	47.576	79.146	90.317	99.881	31.416	62.988	50.826	-60.878	1419.3	-28.42	-141.52	1208.2	-22.424	-239.2	101.16	5.4565	-123.05	30.973	-0.10928	-105.46	1017.1	156.69	-314	59.85	-29.795	-256.22	79.961	-72.383
251	1.255	125.76	1571.6	-76.925	124.17	1574.1	22.615	56.334	1313.3	-23.369	75.79	1179.7	-17.251	23.213	907.53	-135.58	36.599	917.13	113.59	-27.903	1353.1	138.65	-51.221	1186.8	197.06	-24.712	777.69	254.06	-53.532	715.71	303.02	-11.928	1371.6	-174.35	-8.4451	1206	-251.45	104.22	957.19	-305.95	212.7	906.46	-269.49	244.61	843.33	-303.53	96.431	603.14	154.49	106.81	707.81	162.21	181.93	365.51	100.6	-58.517	743.84	-194.21	-102.39	582.08	-156.33	-26.782	653.74	-155.5	-81.742	662.29	-176.86	-144.99	445.3	-130.47	-128.68	343.77	-59.762	-179.09	182.35	-38.457	-171.17	259.77	-109.3	-157.12	263.08	-49.702	-65.246	24.175	-28.46	171.89	279.82	94.79	-86.802	781.97	284.07	-26.216	1534.2	-101.16	158.88	473.66	129.47	145.27	467.64	5.6209	161.32	195.6	85.961	204.2	47.621	114.42	284.91	72.588	76.429	-63.289	901.08	272.33	165.48	859.27	-288.77	-4.2505	1054	-297.16	58.478	676.29	175.28	241.79	64.286	39.043	126.35	282.88	135.56	120.83	107.59	20.508	-170.57	448.32	1.2751	-145.56	967.57	-50.951	19.304	750.94	197.19	-81.619	1025.7	232.95	-26.801	1023.2	-232.83	-155.61	23.83	-81.535	-24.718	1543.2	42.537	-136.51	1293.4	40.613	-138.26	959.33	48.672	102.04	87.43	100.36	54.934	58.536	51.504	-52.873	1418.4	-28.63	-133.88	1207.4	-22.356	-238.54	101.97	5.3244	-123	30.954	-0.16189	-99.28	1016.6	157.03	-313.71	61.215	-29.862	-255.81	80.882	-72.519
252	1.26	133.53	1570.8	-77.122	131.9	1573.3	22.415	64.263	1312.2	-23.554	83.56	1178.4	-17.413	30.142	906.61	-135.86	45.175	916.12	113.45	-19.841	1352.2	138.48	-44.485	1186.3	197.18	-20.493	777.05	254.85	-49.725	715.15	303.68	-3.8837	1370.7	-174.42	0.77478	1205.4	-251.73	116.34	958.28	-305.75	225.29	909.26	-268.47	258.5	846.71	-302.32	103.74	601.71	154.5	114.57	706.29	162.52	193.73	366.03	100.44	-53.153	743.58	-194.25	-98.043	582.1	-156.41	-21.929	653.16	-155.97	-76.868	662.15	-177.01	-141.62	445.55	-130.51	-125.93	343.67	-59.94	-177.67	182.67	-38.756	-169.29	260.11	-109.48	-155.04	263.26	-49.925	-65.169	24.09	-28.429	186.96	279.98	94.721	-82.449	781.81	284.98	-18.345	1533.1	-101.41	167.17	472.94	129.32	152.01	466.26	5.6674	179.66	195.41	86	228.27	48.581	114.1	307.82	76.228	75.41	-58.099	900.74	273	178.98	861.35	-288.23	6.5049	1053.5	-297.78	66.117	674.95	175.51	264.76	66.567	38.485	141.66	281.27	135.84	142.18	105.88	20.784	-166.48	448.61	1.3489	-138.11	966.5	-49.694	27.31	749.68	197.7	-75.569	1025.4	233.28	-16.33	1022.2	-233.67	-155.6	23.849	-81.537	-16.938	1542.1	42.263	-128.55	1292.6	40.548	-130.17	958.25	49.796	124.63	84.93	100.79	78.183	54.498	52.123	-44.857	1417.5	-28.828	-126.21	1206.6	-22.265	-237.82	102.82	5.1941	-122.96	30.928	-0.20661	-93.069	1016.2	157.41	-313.38	62.654	-29.931	-255.36	81.849	-72.657
253	1.265	141.31	1570	-77.316	139.64	1572.5	22.216	72.204	1311	-23.732	91.354	1177.2	-17.576	37.124	905.7	-136.15	53.808	915.13	113.3	-11.746	1351.3	138.33	-37.659	1185.8	197.31	-16.101	776.42	255.6	-45.711	714.59	304.3	4.1669	1369.9	-174.48	10.009	1204.7	-251.97	128.29	959.3	-305.54	237.65	911.91	-267.51	272.08	849.92	-301.16	110.92	600.13	154.65	122.27	704.62	162.77	205.26	366.51	100.29	-47.678	743.32	-194.26	-93.554	582.11	-156.47	-16.953	652.59	-156.43	-71.866	662.01	-177.14	-138.08	445.78	-130.53	-123.05	343.56	-60.094	-176.17	183	-39.048	-167.3	260.47	-109.64	-152.87	263.44	-50.131	-65.085	24.005	-28.391	201.7	280.23	94.647	-77.911	781.65	285.88	-10.467	1531.9	-101.65	175.27	472.07	129.17	158.54	464.62	5.6943	197.62	195.41	86.022	251.83	49.867	113.71	330.17	80.116	74.301	-52.766	900.41	273.66	192.21	863.34	-287.68	17.196	1053	-298.34	73.697	673.53	175.8	287.19	69.133	37.849	156.68	279.8	136.08	163.15	104.5	20.998	-162.24	448.89	1.4502	-130.61	965.39	-48.407	35.346	748.41	198.18	-69.429	1025.1	233.63	-5.8833	1021.2	-234.4	-155.59	23.876	-81.535	-9.1429	1541	42.002	-120.57	1291.7	40.509	-122	957.16	50.945	146.82	82.812	101.14	101.07	50.872	52.666	-36.834	1416.5	-29.013	-118.5	1205.8	-22.152	-237.06	103.7	5.0666	-122.91	30.894	-0.24274	-86.823	1015.8	157.81	-313.02	64.173	-30	-254.87	82.868	-72.797
